<svg width="287" height="378" viewBox="0 0 287 378" fill="none" xmlns="http://www.w3.org/2000/svg">
<g clip-path="url(#clip0_197_1404)">
<path d="M263.5 150.56C264.542 150.56 265.542 150.974 266.279 151.711C267.016 152.448 267.43 153.448 267.43 154.49V275.73C267.414 279.65 265.85 283.406 263.078 286.178C260.305 288.95 256.55 290.514 252.63 290.53H97.4099C93.4895 290.514 89.7342 288.95 86.9621 286.178C84.19 283.406 82.6257 279.65 82.6099 275.73V154.49C82.6099 153.448 83.0239 152.448 83.7609 151.711C84.4979 150.974 85.4976 150.56 86.5399 150.56H263.5ZM259.58 158.41H90.4598V275.73C90.4464 276.646 90.6169 277.556 90.9614 278.406C91.3059 279.255 91.8173 280.026 92.4654 280.674C93.1135 281.323 93.885 281.834 94.7343 282.178C95.5836 282.523 96.4934 282.693 97.4099 282.68H252.63C253.546 282.693 254.456 282.523 255.305 282.178C256.155 281.834 256.926 281.323 257.574 280.674C258.222 280.026 258.734 279.255 259.078 278.406C259.423 277.556 259.593 276.646 259.58 275.73V158.41Z" fill="url(#paint0_linear_197_1404)"/>
<path d="M196.2 150.58V290.52H153.84V150.58H196.2ZM188.35 158.43H161.69V282.67H188.35V158.43Z" fill="url(#paint1_linear_197_1404)"/>
<path d="M103.69 35.02C105.474 35.0367 107.236 35.4143 108.87 36.13L278.02 110.07C281.264 111.504 283.809 114.161 285.103 117.463C286.397 120.765 286.335 124.444 284.93 127.7L281.14 136.37C279.706 139.613 277.049 142.159 273.746 143.451C270.444 144.743 266.765 144.678 263.51 143.27L94.3502 69.34C91.1061 67.9041 88.5608 65.2445 87.2684 61.9406C85.9761 58.6367 86.0414 54.956 87.4502 51.7L91.2401 43.04C92.3068 40.636 94.0545 38.5972 96.2671 37.1755C98.4797 35.7537 101.06 35.0113 103.69 35.04V35.02ZM101.47 43.2C100.798 43.4784 100.186 43.8867 99.6716 44.4015C99.1568 44.9162 98.7486 45.5274 98.4702 46.2L94.6402 54.89C94.3372 55.5547 94.1709 56.2736 94.1513 57.0038C94.1316 57.7341 94.259 58.4609 94.5258 59.1409C94.7926 59.821 95.1933 60.4404 95.7043 60.9625C96.2153 61.4846 96.826 61.8987 97.5002 62.18L266.65 136.12C267.314 136.426 268.034 136.594 268.765 136.615C269.496 136.637 270.223 136.51 270.904 136.243C271.585 135.976 272.205 135.574 272.727 135.061C273.248 134.549 273.661 133.936 273.94 133.26L277.73 124.6C278.036 123.935 278.205 123.215 278.226 122.483C278.247 121.752 278.12 121.023 277.853 120.341C277.586 119.66 277.185 119.039 276.672 118.517C276.159 117.994 275.546 117.58 274.87 117.3L105.73 43.32C104.382 42.718 102.85 42.6748 101.47 43.2Z" fill="black"/>
<path d="M260.4 40.8899C262.508 41.6506 264.46 42.7892 266.16 44.2499C269.63 47.2499 272.08 51.6899 273.38 57.3799C274.68 63.0699 274.38 68.0899 272.52 72.2399C270.598 76.2674 267.34 79.5043 263.3 81.3999C255.39 85.3999 245.06 85.8799 234.6 85.2699C213.68 84.0399 192.01 77.6499 192.01 77.6499L185.01 75.5899L190.62 70.8699C190.62 70.8699 207.57 56.5699 226.11 47.2799C235.38 42.6299 245.05 39.0599 253.94 39.5799C256.155 39.6971 258.342 40.1384 260.43 40.8899H260.4ZM261.03 50.1899C258.896 48.4235 256.22 47.4454 253.45 47.4199C247.14 47.0499 238.28 49.9399 229.6 54.2899C219.832 59.2919 210.575 65.2333 201.96 72.0299C212.796 74.8776 223.88 76.6858 235.06 77.4299C244.87 78.0099 254.24 77.1599 259.78 74.3799C262.225 73.3161 264.209 71.4109 265.37 69.0099C266.37 66.7299 266.76 63.6199 265.73 59.1199C264.7 54.6199 263.02 51.8899 261.02 50.1599L261.03 50.1899Z" fill="black"/>
<path d="M171.64 2.0599C173.611 3.06613 175.424 4.35657 177.02 5.88989C183.45 12.0699 187.4 21.5899 190.28 31.5499C196.02 51.5099 197.02 73.6599 197.02 73.6599L197.38 80.9799L191.09 77.2199C191.09 77.2199 171.68 65.6599 156.57 51.1299C149.02 43.8699 142.38 35.9399 139.92 27.4399C138.568 23.1834 138.73 18.5901 140.38 14.4399C142.15 10.2499 145.65 6.61988 150.71 3.71988C155.77 0.819878 160.71 -0.410118 165.25 0.0998825C167.477 0.35963 169.638 1.02029 171.63 2.04989L171.64 2.0599ZM164.38 7.88989C161.78 7.59989 158.63 8.20989 154.63 10.5099C150.63 12.8099 148.63 15.1899 147.63 17.5099C146.657 19.9892 146.604 22.7348 147.48 25.2499C149.21 31.2499 154.94 38.6599 162.03 45.4799C170.171 53.1713 179.024 60.0723 188.47 66.0899C187.613 55.1554 185.691 44.3308 182.73 33.7699C180.03 24.4399 176.13 15.9699 171.57 11.5899C169.668 9.57794 167.134 8.279 164.39 7.90988L164.38 7.88989Z" fill="black"/>
<path d="M174.77 62.8899L213.6 79.8899L212.02 83.4899L198.34 114.79L159.52 97.7899L174.77 62.8899ZM178.83 73.2299L169.83 93.7399L194.26 104.42L203.26 83.9099L178.83 73.2299Z" fill="black"/>
<path d="M90.5102 129.89C90.7051 129.717 90.8676 129.51 90.9902 129.28C91.1636 128.928 91.2295 128.532 91.1798 128.143C91.13 127.753 90.9667 127.387 90.7102 127.09L82.2902 117.35L84.6302 115.35C85.9347 114.23 87.0056 112.864 87.7816 111.329C88.5576 109.795 89.0235 108.123 89.1526 106.408C89.2817 104.694 89.0715 102.97 88.534 101.337C87.9965 99.704 87.1423 98.1928 86.0202 96.89L67.6202 75.69C65.352 73.0706 62.1365 71.4591 58.6806 71.2097C55.2246 70.9603 51.811 72.0934 49.1902 74.36L4.52021 113C1.90174 115.268 0.290077 118.483 0.0388586 121.938C-0.21236 125.393 0.917393 128.807 3.18022 131.43L21.5302 152.64C23.7981 155.256 27.0116 156.866 30.4651 157.115C33.9186 157.365 37.3299 156.233 39.9502 153.97L68.9502 128.92L89.1002 130.37C89.6145 130.397 90.1195 130.226 90.5102 129.89ZM51.7902 77.35C53.6141 75.7718 55.9899 74.9821 58.3956 75.1547C60.8014 75.3272 63.0402 76.4477 64.6202 78.27L83.0202 99.5C84.5947 101.326 85.3809 103.702 85.2066 106.107C85.0323 108.512 83.9116 110.75 82.0902 112.33L78.2402 115.65C77.8459 115.997 77.6039 116.485 77.5665 117.009C77.5291 117.533 77.6992 118.05 78.0402 118.45L84.6302 126.07L68.3902 124.89C67.8658 124.855 67.3485 125.027 66.9502 125.37L37.3602 150.96C35.5351 152.537 33.1585 153.325 30.7527 153.151C28.3469 152.976 26.1089 151.854 24.5302 150.03L6.18022 128.82C4.60573 126.994 3.81949 124.618 3.99381 122.213C4.16814 119.808 5.28881 117.57 7.11021 115.99L51.7902 77.35Z" fill="url(#paint2_linear_197_1404)"/>
<path d="M62.8 105.03C65.3019 105.03 67.33 103.002 67.33 100.5C67.33 97.9981 65.3019 95.97 62.8 95.97C60.2982 95.97 58.27 97.9981 58.27 100.5C58.27 103.002 60.2982 105.03 62.8 105.03Z" fill="url(#paint3_linear_197_1404)"/>
<path d="M48.5696 118.774C50.4618 117.137 50.6688 114.276 49.0321 112.384C47.3953 110.492 44.5346 110.285 42.6424 111.921C40.7502 113.558 40.5431 116.419 42.1799 118.311C43.8166 120.203 46.6774 120.41 48.5696 118.774Z" fill="url(#paint4_linear_197_1404)"/>
<path d="M28.4201 134.76C30.922 134.76 32.9501 132.732 32.9501 130.23C32.9501 127.728 30.922 125.7 28.4201 125.7C25.9183 125.7 23.8901 127.728 23.8901 130.23C23.8901 132.732 25.9183 134.76 28.4201 134.76Z" fill="url(#paint5_linear_197_1404)"/>
<path d="M103.69 35.02C105.474 35.0367 107.236 35.4143 108.87 36.13L278.02 110.07C281.264 111.504 283.809 114.161 285.103 117.463C286.397 120.765 286.335 124.444 284.93 127.7L281.14 136.37C279.706 139.613 277.049 142.159 273.746 143.451C270.444 144.743 266.765 144.678 263.51 143.27L94.3502 69.34C91.1061 67.9041 88.5608 65.2445 87.2684 61.9406C85.9761 58.6367 86.0414 54.956 87.4502 51.7L91.2401 43.04C92.3068 40.636 94.0545 38.5972 96.2671 37.1755C98.4797 35.7537 101.06 35.0113 103.69 35.04V35.02ZM101.47 43.2C100.798 43.4784 100.186 43.8867 99.6716 44.4015C99.1568 44.9162 98.7486 45.5274 98.4702 46.2L94.6402 54.89C94.3372 55.5547 94.1709 56.2736 94.1513 57.0038C94.1316 57.7341 94.259 58.4609 94.5258 59.1409C94.7926 59.821 95.1933 60.4404 95.7043 60.9625C96.2153 61.4846 96.826 61.8987 97.5002 62.18L266.65 136.12C267.314 136.426 268.034 136.594 268.765 136.615C269.496 136.637 270.223 136.51 270.904 136.243C271.585 135.976 272.205 135.574 272.727 135.061C273.248 134.549 273.661 133.936 273.94 133.26L277.73 124.6C278.036 123.935 278.205 123.215 278.226 122.483C278.247 121.752 278.12 121.023 277.853 120.341C277.586 119.66 277.185 119.039 276.672 118.517C276.159 117.994 275.546 117.58 274.87 117.3L105.73 43.32C104.382 42.718 102.85 42.6748 101.47 43.2Z" fill="url(#paint6_linear_197_1404)"/>
<path d="M260.4 40.8899C262.508 41.6506 264.46 42.7892 266.16 44.2499C269.63 47.2499 272.08 51.6899 273.38 57.3799C274.68 63.0699 274.38 68.0899 272.52 72.2399C270.598 76.2674 267.34 79.5043 263.3 81.3999C255.39 85.3999 245.06 85.8799 234.6 85.2699C213.68 84.0399 192.01 77.6499 192.01 77.6499L185.01 75.5899L190.62 70.8699C190.62 70.8699 207.57 56.5699 226.11 47.2799C235.38 42.6299 245.05 39.0599 253.94 39.5799C256.155 39.6971 258.342 40.1384 260.43 40.8899H260.4ZM261.03 50.1899C258.896 48.4235 256.22 47.4454 253.45 47.4199C247.14 47.0499 238.28 49.9399 229.6 54.2899C219.832 59.2919 210.575 65.2333 201.96 72.0299C212.796 74.8776 223.88 76.6858 235.06 77.4299C244.87 78.0099 254.24 77.1599 259.78 74.3799C262.225 73.3161 264.209 71.4109 265.37 69.0099C266.37 66.7299 266.76 63.6199 265.73 59.1199C264.7 54.6199 263.02 51.8899 261.02 50.1599L261.03 50.1899Z" fill="url(#paint7_linear_197_1404)"/>
<path d="M171.64 2.0599C173.611 3.06613 175.424 4.35657 177.02 5.88989C183.45 12.0699 187.4 21.5899 190.28 31.5499C196.02 51.5099 197.02 73.6599 197.02 73.6599L197.38 80.9799L191.09 77.2199C191.09 77.2199 171.68 65.6599 156.57 51.1299C149.02 43.8699 142.38 35.9399 139.92 27.4399C138.568 23.1834 138.73 18.5901 140.38 14.4399C142.15 10.2499 145.65 6.61988 150.71 3.71988C155.77 0.819878 160.71 -0.410118 165.25 0.0998825C167.477 0.35963 169.638 1.02029 171.63 2.04989L171.64 2.0599ZM164.38 7.88989C161.78 7.59989 158.63 8.20989 154.63 10.5099C150.63 12.8099 148.63 15.1899 147.63 17.5099C146.657 19.9892 146.604 22.7348 147.48 25.2499C149.21 31.2499 154.94 38.6599 162.03 45.4799C170.171 53.1713 179.024 60.0723 188.47 66.0899C187.613 55.1554 185.691 44.3308 182.73 33.7699C180.03 24.4399 176.13 15.9699 171.57 11.5899C169.668 9.57794 167.134 8.279 164.39 7.90988L164.38 7.88989Z" fill="url(#paint8_linear_197_1404)"/>
<path d="M174.77 62.8899L213.6 79.8899L212.02 83.4899L198.34 114.79L159.52 97.7899L174.77 62.8899ZM178.83 73.2299L169.83 93.7399L194.26 104.42L203.26 83.9099L178.83 73.2299Z" fill="url(#paint9_linear_197_1404)"/>
<path d="M90.5102 129.89C90.7051 129.717 90.8676 129.51 90.9902 129.28C91.1636 128.928 91.2295 128.532 91.1798 128.143C91.13 127.753 90.9667 127.387 90.7102 127.09L82.2902 117.35L84.6302 115.35C85.9347 114.23 87.0056 112.864 87.7816 111.329C88.5576 109.795 89.0235 108.123 89.1526 106.408C89.2817 104.694 89.0715 102.97 88.534 101.337C87.9965 99.704 87.1423 98.1928 86.0202 96.89L67.6202 75.69C65.352 73.0706 62.1365 71.4591 58.6806 71.2097C55.2246 70.9603 51.811 72.0934 49.1902 74.36L4.52021 113C1.90174 115.268 0.290077 118.483 0.0388586 121.938C-0.21236 125.393 0.917393 128.807 3.18022 131.43L21.5302 152.64C23.7981 155.256 27.0116 156.866 30.4651 157.115C33.9186 157.365 37.3299 156.233 39.9502 153.97L68.9502 128.92L89.1002 130.37C89.6145 130.397 90.1195 130.226 90.5102 129.89ZM51.7902 77.35C53.6141 75.7718 55.9899 74.9821 58.3956 75.1547C60.8014 75.3272 63.0402 76.4477 64.6202 78.27L83.0202 99.5C84.5947 101.326 85.3809 103.702 85.2066 106.107C85.0323 108.512 83.9116 110.75 82.0902 112.33L78.2402 115.65C77.8459 115.997 77.6039 116.485 77.5665 117.009C77.5291 117.533 77.6992 118.05 78.0402 118.45L84.6302 126.07L68.3902 124.89C67.8658 124.855 67.3485 125.027 66.9502 125.37L37.3602 150.96C35.5351 152.537 33.1585 153.325 30.7527 153.151C28.3469 152.976 26.1089 151.854 24.5302 150.03L6.18022 128.82C4.60573 126.994 3.81949 124.618 3.99381 122.213C4.16814 119.808 5.28881 117.57 7.11021 115.99L51.7902 77.35Z" fill="url(#paint10_linear_197_1404)"/>
<path d="M62.8 105.03C65.3019 105.03 67.33 103.002 67.33 100.5C67.33 97.9981 65.3019 95.97 62.8 95.97C60.2982 95.97 58.27 97.9981 58.27 100.5C58.27 103.002 60.2982 105.03 62.8 105.03Z" fill="url(#paint11_linear_197_1404)"/>
<path d="M48.5696 118.774C50.4618 117.137 50.6688 114.276 49.0321 112.384C47.3953 110.492 44.5346 110.285 42.6424 111.921C40.7502 113.558 40.5431 116.419 42.1799 118.311C43.8166 120.203 46.6774 120.41 48.5696 118.774Z" fill="url(#paint12_linear_197_1404)"/>
<path d="M28.4201 134.76C30.922 134.76 32.9501 132.732 32.9501 130.23C32.9501 127.728 30.922 125.7 28.4201 125.7C25.9183 125.7 23.8901 127.728 23.8901 130.23C23.8901 132.732 25.9183 134.76 28.4201 134.76Z" fill="url(#paint13_linear_197_1404)"/>
<path d="M132.59 307.63L101.12 352.32L120.67 352.38C123.67 352.38 125.973 351.733 127.58 350.44C129.187 349.147 130.62 346.48 131.88 342.44L133.04 342.65L130.75 355.27L91.9399 355.15V353.89L122.66 310.46H107.41C105.537 310.342 103.66 310.617 101.9 311.27C100.806 311.776 99.8945 312.607 99.29 313.65C98.4451 315.505 97.8887 317.477 97.64 319.5H96.3L97.3 307.58L132.59 307.63Z" fill="url(#paint14_linear_197_1404)"/>
<path d="M146.87 305.36L146.79 328.89C149.41 326.04 151.47 324.21 153 323.41C154.401 322.638 155.971 322.226 157.57 322.21C159.268 322.172 160.929 322.711 162.28 323.74C163.732 324.97 164.749 326.636 165.18 328.49C165.733 331.196 165.952 333.96 165.83 336.72V348.11C165.736 349.524 165.899 350.944 166.31 352.3C166.546 352.867 166.965 353.339 167.5 353.64C168.477 354.045 169.535 354.216 170.59 354.14V355.4H154.77V354.14H155.51C156.599 354.249 157.695 354.011 158.64 353.46C159.266 352.951 159.703 352.247 159.88 351.46C159.983 350.36 160.02 349.255 159.99 348.15V336.76C160.111 334.441 159.936 332.115 159.47 329.84C159.187 328.838 158.574 327.961 157.73 327.35C156.88 326.781 155.873 326.49 154.85 326.52C153.603 326.537 152.377 326.845 151.27 327.42C149.575 328.379 148.06 329.624 146.79 331.1L146.73 348.1C146.64 349.484 146.762 350.873 147.09 352.22C147.386 352.808 147.868 353.283 148.46 353.57C149.556 354.017 150.739 354.208 151.92 354.13V355.39L135.92 355.34V354.08C137.08 354.136 138.237 353.91 139.29 353.42C139.817 353.13 140.219 352.657 140.42 352.09C140.791 350.791 140.94 349.439 140.86 348.09L141.02 318.89C141.095 316.624 141.015 314.355 140.78 312.1C140.704 311.454 140.419 310.85 139.97 310.38C139.559 310.054 139.044 309.891 138.52 309.92C137.697 309.983 136.888 310.169 136.12 310.47L135.64 309.24L145.28 305.33L146.87 305.36Z" fill="url(#paint15_linear_197_1404)"/>
<path d="M178.73 335.38C178.69 340.16 179.84 343.913 182.18 346.64C183.159 347.9 184.409 348.922 185.837 349.632C187.265 350.342 188.835 350.721 190.43 350.74C192.403 350.789 194.337 350.185 195.93 349.02C197.789 347.437 199.156 345.355 199.87 343.02L200.96 343.73C200.426 347.013 198.921 350.06 196.64 352.48C195.537 353.749 194.167 354.759 192.629 355.438C191.09 356.118 189.421 356.449 187.74 356.41C185.858 356.42 183.996 356.02 182.283 355.24C180.571 354.46 179.048 353.317 177.82 351.89C175.073 348.87 173.71 344.817 173.73 339.73C173.73 334.23 175.153 329.94 178 326.86C179.339 325.371 180.984 324.19 182.822 323.398C184.661 322.605 186.649 322.221 188.65 322.27C190.301 322.22 191.943 322.515 193.474 323.135C195.004 323.754 196.389 324.686 197.54 325.87C199.854 328.25 201.003 331.433 200.99 335.42L178.73 335.38ZM178.73 333.38H193.63C193.624 331.898 193.381 330.426 192.91 329.02C192.365 327.752 191.457 326.673 190.3 325.92C189.226 325.197 187.965 324.801 186.67 324.78C185.692 324.786 184.725 324.988 183.827 325.374C182.928 325.761 182.117 326.324 181.44 327.03C179.81 328.74 178.852 330.98 178.74 333.34L178.73 333.38Z" fill="url(#paint16_linear_197_1404)"/>
<path d="M214.7 312.78V323.36H222.23V325.89H214.71L214.64 346.77C214.64 348.86 214.93 350.27 215.52 350.99C215.792 351.339 216.142 351.62 216.541 351.81C216.94 352.001 217.378 352.097 217.82 352.09C218.628 352.087 219.416 351.839 220.08 351.38C220.839 350.854 221.427 350.117 221.77 349.26H223.14C222.497 351.285 221.282 353.081 219.64 354.43C218.336 355.52 216.699 356.13 215 356.16C213.884 356.146 212.793 355.832 211.84 355.25C210.822 354.662 210.022 353.76 209.56 352.68C208.985 351.027 208.741 349.277 208.84 347.53L208.91 325.87H203.81V324.71C205.285 324.079 206.638 323.196 207.81 322.1C209.207 320.815 210.422 319.344 211.42 317.73C212.287 316.157 213.046 314.527 213.69 312.85L214.7 312.78Z" fill="url(#paint17_linear_197_1404)"/>
<path d="M241.07 322.49C243.326 322.429 245.565 322.904 247.602 323.876C249.639 324.848 251.417 326.288 252.79 328.08C255.26 331.174 256.579 335.031 256.52 338.99C256.474 342.026 255.757 345.014 254.42 347.74C253.258 350.43 251.32 352.712 248.855 354.295C246.39 355.879 243.509 356.692 240.58 356.63C238.32 356.692 236.08 356.19 234.062 355.171C232.044 354.151 230.311 352.646 229.02 350.79C226.64 347.621 225.378 343.753 225.43 339.79C225.467 336.722 226.231 333.706 227.66 330.99C228.916 328.316 230.933 326.072 233.46 324.54C235.764 323.181 238.394 322.472 241.07 322.49ZM239.97 324.77C238.647 324.795 237.355 325.175 236.23 325.87C234.814 326.795 233.739 328.157 233.17 329.75C232.324 332.032 231.933 334.458 232.02 336.89C231.895 341.105 232.845 345.283 234.78 349.03C236.633 352.43 239.083 354.137 242.13 354.15C243.223 354.164 244.304 353.918 245.283 353.431C246.262 352.944 247.111 352.231 247.76 351.35C249.24 349.477 249.986 346.257 250 341.69C250 335.97 248.786 331.467 246.36 328.18C245.666 327.133 244.724 326.274 243.618 325.679C242.512 325.084 241.276 324.772 240.02 324.77H239.97Z" fill="url(#paint18_linear_197_1404)"/>
</g>
<defs>
<linearGradient id="paint0_linear_197_1404" x1="83" y1="221" x2="267" y2="221" gradientUnits="userSpaceOnUse">
<stop stop-color="#9C57FF"/>
<stop offset="1" stop-color="#6CC7FE"/>
</linearGradient>
<linearGradient id="paint1_linear_197_1404" x1="154" y1="221" x2="196" y2="221" gradientUnits="userSpaceOnUse">
<stop stop-color="#9C57FF"/>
<stop offset="1" stop-color="#6CC7FE"/>
</linearGradient>
<linearGradient id="paint2_linear_197_1404" x1="-0.398271" y1="117.272" x2="90.0021" y2="110.967" gradientUnits="userSpaceOnUse">
<stop stop-color="#9C57FF"/>
<stop offset="1" stop-color="#6CC7FE"/>
</linearGradient>
<linearGradient id="paint3_linear_197_1404" x1="58.3061" y1="100.777" x2="67.3441" y2="100.147" gradientUnits="userSpaceOnUse">
<stop stop-color="#9C57FF"/>
<stop offset="1" stop-color="#6CC7FE"/>
</linearGradient>
<linearGradient id="paint4_linear_197_1404" x1="41.0863" y1="115.653" x2="50.1243" y2="115.022" gradientUnits="userSpaceOnUse">
<stop stop-color="#9C57FF"/>
<stop offset="1" stop-color="#6CC7FE"/>
</linearGradient>
<linearGradient id="paint5_linear_197_1404" x1="23.9225" y1="130.522" x2="32.9606" y2="129.892" gradientUnits="userSpaceOnUse">
<stop stop-color="#9C57FF"/>
<stop offset="1" stop-color="#6CC7FE"/>
</linearGradient>
<linearGradient id="paint6_linear_197_1404" x1="61" y1="31.5" x2="302.5" y2="140" gradientUnits="userSpaceOnUse">
<stop stop-color="#9C57FF"/>
<stop offset="1" stop-color="#6CC7FE"/>
</linearGradient>
<linearGradient id="paint7_linear_197_1404" x1="283" y1="62.9999" x2="194" y2="67.4999" gradientUnits="userSpaceOnUse">
<stop stop-color="#6CC7FE"/>
<stop offset="1" stop-color="#9C57FF"/>
</linearGradient>
<linearGradient id="paint8_linear_197_1404" x1="130" y1="21.4999" x2="226" y2="56.4999" gradientUnits="userSpaceOnUse">
<stop stop-color="#9C57FF"/>
<stop offset="1" stop-color="#6CC7FE"/>
</linearGradient>
<linearGradient id="paint9_linear_197_1404" x1="157" y1="97.9999" x2="221.5" y2="76.9999" gradientUnits="userSpaceOnUse">
<stop stop-color="#9C57FF"/>
<stop offset="1" stop-color="#6CC7FE"/>
</linearGradient>
<linearGradient id="paint10_linear_197_1404" x1="-0.398271" y1="117.272" x2="90.0021" y2="110.967" gradientUnits="userSpaceOnUse">
<stop stop-color="#9C57FF"/>
<stop offset="1" stop-color="#6CC7FE"/>
</linearGradient>
<linearGradient id="paint11_linear_197_1404" x1="58.3061" y1="100.777" x2="67.3441" y2="100.147" gradientUnits="userSpaceOnUse">
<stop stop-color="#9C57FF"/>
<stop offset="1" stop-color="#6CC7FE"/>
</linearGradient>
<linearGradient id="paint12_linear_197_1404" x1="41.0863" y1="115.653" x2="50.1243" y2="115.022" gradientUnits="userSpaceOnUse">
<stop stop-color="#9C57FF"/>
<stop offset="1" stop-color="#6CC7FE"/>
</linearGradient>
<linearGradient id="paint13_linear_197_1404" x1="23.9225" y1="130.522" x2="32.9606" y2="129.892" gradientUnits="userSpaceOnUse">
<stop stop-color="#9C57FF"/>
<stop offset="1" stop-color="#6CC7FE"/>
</linearGradient>
<linearGradient id="paint14_linear_197_1404" x1="91.9399" y1="330.99" x2="256.52" y2="330.99" gradientUnits="userSpaceOnUse">
<stop stop-color="#9C57FF"/>
<stop offset="1" stop-color="#6CC7FE"/>
</linearGradient>
<linearGradient id="paint15_linear_197_1404" x1="91.9401" y1="330.99" x2="256.52" y2="330.99" gradientUnits="userSpaceOnUse">
<stop stop-color="#9C57FF"/>
<stop offset="1" stop-color="#6CC7FE"/>
</linearGradient>
<linearGradient id="paint16_linear_197_1404" x1="91.9404" y1="330.99" x2="256.52" y2="330.99" gradientUnits="userSpaceOnUse">
<stop stop-color="#9C57FF"/>
<stop offset="1" stop-color="#6CC7FE"/>
</linearGradient>
<linearGradient id="paint17_linear_197_1404" x1="91.94" y1="330.99" x2="256.52" y2="330.99" gradientUnits="userSpaceOnUse">
<stop stop-color="#9C57FF"/>
<stop offset="1" stop-color="#6CC7FE"/>
</linearGradient>
<linearGradient id="paint18_linear_197_1404" x1="91.9396" y1="330.99" x2="256.52" y2="330.99" gradientUnits="userSpaceOnUse">
<stop stop-color="#9C57FF"/>
<stop offset="1" stop-color="#6CC7FE"/>
</linearGradient>
<clipPath id="clip0_197_1404">
<rect width="286.03" height="377.78" fill="white"/>
</clipPath>
</defs>
</svg>
